<svg width="5000" height="2050" xmlns="http://www.w3.org/2000/svg">
  <rect x="1" y="1" width="4998" height="2048"
        stroke="black" stroke-width="3" fill="none"/>
  <g id="lines" stroke="black" stroke-width="3">
         <!-- horizontal line -->
        <line x1="1" y1="331" x2="540" y2="331"/>
        <line x1="1" y1="854" x2="71" y2="854"/>
        <line x1="1" y1="931" x2="235" y2="931"/>
        <line x1="1" y1="1051" x2="540" y2="1051"/>
        <line x1="1" y1="1129" x2="71" y2="1129"/>
        <line x1="1" y1="1803" x2="4829" y2="1803"/>
        <line x1="142" y1="992" x2="235" y2="992"/>
        <line x1="540" y1="91" x2="4999" y2="91"/>
        <line x1="540" y1="692" x2="4810" y2="692"/>
        <line x1="540" y1="1446" x2="4999" y2="1446"/>
        <line x1="1076" y1="305" x2="3210" y2="305"/>
        <line x1="1076" y1="480" x2="3212" y2="480"/>
        <line x1="1076" y1="937" x2="3212" y2="937"/>
        <line x1="1076" y1="1201" x2="3212" y2="1201"/>
        <line x1="1265" y1="1134" x2="1878" y2="1134"/>
        <line x1="1524" y1="392" x2="1879" y2="392"/>
        <line x1="1877" y1="392" x2="2245" y2="392"/>
        <line x1="1876" y1="1134" x2="2619" y2="1134"/>
        <line x1="2244" y1="392" x2="2619" y2="392"/>
        <line x1="2620" y1="392" x2="2936" y2="392"/>
        <line x1="2619" y1="1134" x2="2958" y2="1134"/>
        <line x1="2935" y1="392" x2="3210" y2="392"/>
        <line x1="2959" y1="1134" x2="3212" y2="1134"/>
        <line x1="3647" y1="1056" x2="4998" y2="1056"/>
        <line x1="3683" y1="334" x2="4998" y2="334"/>
        <line x1="4809" y1="944" x2="4998" y2="944"/>
        <line x1="4903" y1="618" x2="4998" y2="618"/>
        <line x1="4904" y1="701" x2="4998" y2="701"/>
        <line x1="4903" y1="787" x2="4998" y2="787"/>
        <line x1="4905" y1="827" x2="4998" y2="827"/>
        <line x1="4905" y1="1139" x2="4998" y2="1139"/>
        <line x1="4905" y1="1179" x2="4998" y2="1179"/>
        <line x1="4922" y1="1265" x2="4998" y2="1265"/>
        <!-- vertical line -->
        <line x1="71" y1="854" x2="71" y2="931"/>
        <line x1="71" y1="1051" x2="71" y2="1129"/>
        <line x1="144" y1="931" x2="144" y2="1051"/>
        <line x1="235" y1="931" x2="235" y2="1051"/>
        <line x1="540" y1="91" x2="540" y2="1803"/>
        <line x1="1076" y1="91" x2="1076" y2="305"/>
        <line x1="1076" y1="480" x2="1076" y2="937"/>
        <line x1="1076" y1="1201" x2="1076" y2="1446"/>
        <line x1="1265" y1="937" x2="1265" y2="1134"/>
        <line x1="1524" y1="307" x2="1524" y2="392"/>
        <line x1="1877" y1="937" x2="1877" y2="1134"/>
        <line x1="1877" y1="307" x2="1877" y2="392"/>
        <line x1="2245" y1="307" x2="2245" y2="392"/>
        <line x1="2620" y1="937" x2="2620" y2="1134"/>
        <line x1="2620" y1="307" x2="2620" y2="392"/>
        <line x1="2935" y1="307" x2="2935" y2="392"/>
        <line x1="2958" y1="937" x2="2958" y2="1134"/>
        <line x1="3212" y1="91" x2="3212" y2="392"/>
        <line x1="3212" y1="480" x2="3212" y2="1134"/>
        <line x1="3212" y1="1201" x2="3212" y2="1446"/>
        <line x1="3647" y1="1056" x2="3647" y2="1446"/>
        <line x1="3683" y1="91" x2="3683" y2="334"/>
        <line x1="4811" y1="693" x2="4811" y2="947"/>
        <line x1="4903" y1="618" x2="4903" y2="704"/>
        <line x1="4903" y1="787" x2="4903" y2="827"/>
        <line x1="4904" y1="701" x2="4904" y2="787"/>
        <line x1="4904" y1="1140" x2="4904" y2="1179"/>
        <line x1="4905" y1="827" x2="4905" y2="1139"/>
        <line x1="4922" y1="1179" x2="4922" y2="1265"/>
  </g>
</svg>